<svg width="800" height="800" viewBox="0 0 800 800" fill="none" xmlns="http://www.w3.org/2000/svg">
<rect width="800" height="800" rx="161" transform="matrix(-1 0 0 1 800 0)" fill="#6C5CE7"/>
<path d="M317.034 228.588L325.157 235.646L337.165 263.054L356.589 306.226L386.726 364.924L395.555 382.333L400.264 398.449L402.029 403.39H405.09V400.566L407.562 367.512L412.153 326.929L416.627 274.7L418.157 259.996L425.456 242.351L439.936 232.822L451.237 238.233L460.537 251.526L459.242 260.113L453.709 295.991L442.879 352.22L435.815 389.861H439.936L444.645 385.156L463.716 359.865L495.735 319.87L509.862 303.99L526.344 286.463L536.938 278.111H556.951L571.666 299.99L565.073 322.576L544.473 348.69L527.403 370.806L502.917 403.742L487.613 430.092L489.025 432.209L492.675 431.856L548.004 420.093L577.905 414.682L613.575 408.565L629.703 416.094L631.469 423.739L625.111 439.385L586.97 448.795L542.235 457.735L475.605 473.498L474.781 474.086L475.723 475.263L505.742 478.086L518.574 478.792H550.006L608.513 483.144L623.816 493.261L632.999 505.611L631.469 515.022L607.925 527.021L576.14 519.492L501.975 501.848L476.547 495.495H473.016V497.612L494.205 518.316L533.054 553.37L581.673 598.541L584.145 609.716L577.905 618.539L571.312 617.598L528.58 585.484L512.099 571.016L474.781 539.607H472.31V542.901L480.903 555.487L526.344 623.715L528.698 644.653L525.401 651.476L513.63 655.593L500.68 653.24L474.075 615.95L446.646 573.956L424.515 536.313L421.807 537.843L408.739 678.413L402.618 685.589L388.491 691L376.72 682.06L370.48 667.591L376.72 639.007L384.254 601.717L390.375 572.074L395.908 535.255L399.204 523.021L398.969 522.198L396.261 522.551L368.479 560.664L326.217 617.715L292.784 653.476L284.778 656.651L270.888 649.476L272.183 636.654L279.952 625.243L326.217 566.428L354.117 529.962L372.128 508.905L372.011 505.847H370.951L249.354 584.755C255.327 574.542 258.745 562.872 258.745 550.937V535.436L259.351 535.02L259.233 535.138L350.703 483.85L352.233 479.38L350.703 476.909H346.229L330.926 475.969L278.657 474.557L258.745 473.729V447.051L265.237 447.501L297.257 449.384L344.699 454.324H352.233L353.293 451.266L350.703 449.384L348.701 447.501L303.025 416.564L255.215 384.941C248.734 366.576 234.033 353.285 217.055 346.6C217.078 335.252 218.235 324.13 220.419 313.334L233.335 314.225L237.69 315.4L254.995 328.693L291.96 357.277L340.226 392.803L347.289 398.684L350.114 396.685L350.468 395.272L347.289 389.979L321.037 342.573L293.02 294.345L280.541 274.347L277.244 262.349C276.067 257.408 275.243 253.291 275.243 248.232L289.723 228.588L297.729 226L317.034 228.588Z" fill="white"/>
<path d="M400.51 92C543.41 92.0002 664.908 208.043 664.908 350.667V399.447H666.245C685.959 399.447 702 414.164 702 433.85L701.925 525.065C701.925 544.751 685.884 561.259 666.17 561.259H663.73C660.062 579.75 645.858 588.99 628.913 588.99H609.284C605.382 588.99 601.575 588.268 597.977 586.961C597.336 586.059 596.621 585.206 595.834 584.417L595.287 583.889L575.348 565.363C573.367 560.821 572.254 555.917 572.254 550.927V539.125L603.316 546.482C607.93 547.575 612.782 546.993 617.007 544.84L640.551 532.842C646.229 529.948 650.188 524.522 651.211 518.232L652.741 508.821C653.609 503.482 652.277 498.02 649.05 493.679L639.867 481.328C638.569 479.582 636.994 478.06 635.207 476.821L634.847 476.577L619.543 466.46C617.095 464.841 614.325 463.786 611.433 463.359L629.903 458.803C636.122 457.268 641.229 452.848 643.641 446.914L649.998 431.269C651.548 427.453 651.884 423.252 650.957 419.239L649.191 411.594C647.85 405.786 643.991 400.888 638.682 398.222L638.164 397.971L622.036 390.442C618.574 388.827 614.727 388.238 610.95 388.738L610.196 388.854L574.526 394.97C574.466 394.98 574.405 394.99 574.345 395.001L574.151 395.035C579.205 380.994 593.683 371.706 609.284 371.706H613.951V346.949C613.951 231.917 515.76 138.322 400.5 138.322C285.249 138.322 187.054 231.917 187.054 346.949V371.706H191.716C211.095 371.706 228.746 386.038 228.746 406.01V550.937C228.746 570.626 211.434 589 191.716 589H172.087C155.142 589 140.943 579.754 137.27 561.268H134.83C115.107 561.268 99.0752 544.111 99.0752 524.426L99 434.423C99.0096 414.743 115.041 399.447 134.764 399.447H136.106V350.667C136.106 208.043 257.6 92 400.51 92Z" fill="white"/>
</svg>
